<svg class="icon" viewBox="0 0 1024 1024" version="1.1" xmlns="http://www.w3.org/2000/svg" width="200"
     height="200">
  <path
      d="M874.666667 576a85.333333 85.333333 0 0 1 85.333333 85.333333v118.848A115.818667 115.818667 0 0 1 844.181333 896H832v42.666667a21.333333 21.333333 0 0 1-21.333333 21.333333h-21.333334a21.333333 21.333333 0 0 1-21.333333-21.333333v-42.666667H256v42.666667a21.333333 21.333333 0 0 1-21.333333 21.333333h-21.333334a21.333333 21.333333 0 0 1-21.333333-21.333333v-42.666667h-12.181333A115.818667 115.818667 0 0 1 64 780.181333V661.333333a85.333333 85.333333 0 0 1 85.333333-85.333333h725.333334z m0 64H149.333333a21.333333 21.333333 0 0 0-21.184 18.837333L128 661.333333v118.848a51.818667 51.818667 0 0 0 48.405333 51.712l3.413334 0.106667H844.16a51.818667 51.818667 0 0 0 51.712-48.405333l0.106667-3.413334V661.333333a21.333333 21.333333 0 0 0-18.837334-21.184L874.666667 640z m-640 42.666667a42.666667 42.666667 0 1 1 0 85.333333 42.666667 42.666667 0 0 1 0-85.333333z m554.666666 0a42.666667 42.666667 0 1 1 0 85.333333 42.666667 42.666667 0 0 1 0-85.333333zM405.333333 64a85.333333 85.333333 0 0 1 85.333334 85.333333v256a85.333333 85.333333 0 0 1-85.333334 85.333334H149.333333a85.333333 85.333333 0 0 1-85.333333-85.333334V149.333333a85.333333 85.333333 0 0 1 85.333333-85.333333h256z m234.666667 0a21.333333 21.333333 0 0 1 21.333333 21.333333v384a21.333333 21.333333 0 0 1-21.333333 21.333334h-21.333333a21.333333 21.333333 0 0 1-21.333334-21.333334V85.333333a21.333333 21.333333 0 0 1 21.333334-21.333333h21.333333z m298.666667 362.666667a21.333333 21.333333 0 0 1 21.333333 21.333333v21.333333a21.333333 21.333333 0 0 1-21.333333 21.333334h-21.333334a21.333333 21.333333 0 0 1-21.333333-21.333334v-21.333333a21.333333 21.333333 0 0 1 21.333333-21.333333h21.333334z m-149.333334-192a21.333333 21.333333 0 0 1 21.333334 21.333333v213.333333a21.333333 21.333333 0 0 1-21.333334 21.333334h-21.333333a21.333333 21.333333 0 0 1-21.333333-21.333334V256a21.333333 21.333333 0 0 1 21.333333-21.333333h21.333333zM405.333333 128H149.333333a21.333333 21.333333 0 0 0-21.184 18.837333L128 149.333333v256a21.333333 21.333333 0 0 0 18.837333 21.184L149.333333 426.666667h256a21.333333 21.333333 0 0 0 21.184-18.837334L426.666667 405.333333V149.333333a21.333333 21.333333 0 0 0-18.837334-21.184L405.333333 128z m-106.666666 106.666667a21.333333 21.333333 0 0 1 21.333333 21.333333v42.666667a21.333333 21.333333 0 0 1-21.333333 21.333333h-42.666667a21.333333 21.333333 0 0 1-21.333333-21.333333v-42.666667a21.333333 21.333333 0 0 1 21.333333-21.333333h42.666667z m640-170.666667a21.333333 21.333333 0 0 1 21.333333 21.333333v213.333334a21.333333 21.333333 0 0 1-21.333333 21.333333h-21.333334a21.333333 21.333333 0 0 1-21.333333-21.333333V85.333333a21.333333 21.333333 0 0 1 21.333333-21.333333h21.333334z m-149.333334 0a21.333333 21.333333 0 0 1 21.333334 21.333333v21.333334a21.333333 21.333333 0 0 1-21.333334 21.333333h-21.333333a21.333333 21.333333 0 0 1-21.333333-21.333333V85.333333a21.333333 21.333333 0 0 1 21.333333-21.333333h21.333333z"
      fill="#d4237a"></path>
</svg>